{"asset":{"generator":"Khronos glTF Blender I/O v1.2.75","version":"2.0"},"scene":0,"scenes":[{"name":"Scene","nodes":[0]}],"nodes":[{"mesh":0,"name":"Mesh"}],"meshes":[{"name":"SM_TableRound","primitives":[{"indices":4,"attributes":{"POSITION":0,"NORMAL":1,"TEXCOORD_0":2,"TEXCOORD_1":3},"mode":4}]}],"accessors":[{"bufferView":0,"componentType":5126,"count":3900,"type":"VEC3","min":[-0.6154051208496094,0.001063489392399788,-0.6154050064086914],"max":[0.6154050064086914,0.7031440734863281,0.6154052352905274]},{"bufferView":1,"componentType":5126,"count":3900,"type":"VEC3"},{"bufferView":2,"componentType":5126,"count":3900,"type":"VEC2"},{"bufferView":3,"componentType":5126,"count":3900,"type":"VEC2"},{"bufferView":4,"componentType":5123,"count":12960,"type":"SCALAR"}],"bufferViews":[{"buffer":0,"byteOffset":0,"byteLength":46800},{"buffer":0,"byteOffset":46800,"byteLength":46800},{"buffer":0,"byteOffset":93600,"byteLength":31200},{"buffer":0,"byteOffset":124800,"byteLength":31200},{"buffer":0,"byteOffset":156000,"byteLength":25920}],"buffers":[{"byteLength":181920,"uri":"data:application/octet-stream;base64,"}]}
