{"asset":{"generator":"Khronos glTF Blender I/O v1.2.75","version":"2.0"},"scene":0,"scenes":[{"name":"Scene","nodes":[0]}],"nodes":[{"mesh":0,"name":"Mesh"}],"meshes":[{"name":"SK_wpn_cs_sawedoffshotgun_Mesh","primitives":[{"indices":5,"attributes":{"POSITION":0,"NORMAL":1,"TEXCOORD_0":2,"WEIGHTS_0":3,"JOINTS_0":4},"mode":4}]}],"accessors":[{"bufferView":0,"componentType":5126,"count":6204,"type":"VEC3","min":[-0.032150935381650925,-0.0687323585152626,-0.12488194555044174],"max":[0.032186225056648254,0.07344797253608704,0.06205866485834122]},{"bufferView":1,"componentType":5126,"count":6204,"type":"VEC3"},{"bufferView":2,"componentType":5126,"count":6204,"type":"VEC2"},{"bufferView":3,"componentType":5126,"count":6204,"type":"VEC4"},{"bufferView":4,"componentType":5126,"count":6204,"type":"VEC4"},{"bufferView":5,"componentType":5123,"count":22368,"type":"SCALAR"}],"bufferViews":[{"buffer":0,"byteOffset":0,"byteLength":74448},{"buffer":0,"byteOffset":74448,"byteLength":74448},{"buffer":0,"byteOffset":148896,"byteLength":49632},{"buffer":0,"byteOffset":198528,"byteLength":99264},{"buffer":0,"byteOffset":297792,"byteLength":99264},{"buffer":0,"byteOffset":397056,"byteLength":44736}],"buffers":[{"byteLength":441792,"uri":"data:application/octet-stream;base64,"}]}
