{"asset":{"generator":"Khronos glTF Blender I/O v1.2.75","version":"2.0"},"scene":0,"scenes":[{"name":"Scene","nodes":[0]}],"nodes":[{"mesh":0,"name":"Mesh"}],"meshes":[{"name":"SM_Chair","primitives":[{"indices":4,"attributes":{"POSITION":0,"NORMAL":1,"TEXCOORD_0":2,"TEXCOORD_1":3},"mode":4}]}],"accessors":[{"bufferView":0,"componentType":5126,"count":1467,"type":"VEC3","min":[-0.41943988800048826,7.62939453125e-8,-0.40450736999511716],"max":[0.4021192169189453,1.153508529663086,0.40450736999511716]},{"bufferView":1,"componentType":5126,"count":1467,"type":"VEC3"},{"bufferView":2,"componentType":5126,"count":1467,"type":"VEC2"},{"bufferView":3,"componentType":5126,"count":1467,"type":"VEC2"},{"bufferView":4,"componentType":5123,"count":5346,"type":"SCALAR"}],"bufferViews":[{"buffer":0,"byteOffset":0,"byteLength":17604},{"buffer":0,"byteOffset":17604,"byteLength":17604},{"buffer":0,"byteOffset":35208,"byteLength":11736},{"buffer":0,"byteOffset":46944,"byteLength":11736},{"buffer":0,"byteOffset":58680,"byteLength":10692}],"buffers":[{"byteLength":69372,"uri":"data:application/octet-stream;base64,"}]}
