{"asset":{"generator":"Khronos glTF Blender I/O v1.2.75","version":"2.0"},"scene":0,"scenes":[{"name":"Scene","nodes":[0]}],"nodes":[{"mesh":0,"name":"Mesh"}],"meshes":[{"name":"SM_Statue","primitives":[{"indices":4,"attributes":{"POSITION":0,"NORMAL":1,"TEXCOORD_0":2,"TEXCOORD_1":3},"mode":4},{"indices":9,"attributes":{"POSITION":5,"NORMAL":6,"TEXCOORD_0":7,"TEXCOORD_1":8},"mode":4}]}],"accessors":[{"bufferView":0,"componentType":5126,"count":1818,"type":"VEC3","min":[-0.19330127716064452,-6.503263588584921e-17,-0.19330127716064452],"max":[0.1933012580871582,0.8663294219970703,0.19330127716064452]},{"bufferView":1,"componentType":5126,"count":1818,"type":"VEC3"},{"bufferView":2,"componentType":5126,"count":1818,"type":"VEC2"},{"bufferView":3,"componentType":5126,"count":1818,"type":"VEC2"},{"bufferView":4,"componentType":5123,"count":9768,"type":"SCALAR"},{"bufferView":5,"componentType":5126,"count":610,"type":"VEC3","min":[-0.19330127716064452,-6.503263588584921e-17,-0.19330127716064452],"max":[0.1933012580871582,0.8663294219970703,0.19330127716064452]},{"bufferView":6,"componentType":5126,"count":610,"type":"VEC3"},{"bufferView":7,"componentType":5126,"count":610,"type":"VEC2"},{"bufferView":8,"componentType":5126,"count":610,"type":"VEC2"},{"bufferView":9,"componentType":5123,"count":2304,"type":"SCALAR"}],"bufferViews":[{"buffer":0,"byteOffset":0,"byteLength":21816},{"buffer":0,"byteOffset":21816,"byteLength":21816},{"buffer":0,"byteOffset":43632,"byteLength":14544},{"buffer":0,"byteOffset":58176,"byteLength":14544},{"buffer":0,"byteOffset":72720,"byteLength":19536},{"buffer":1,"byteOffset":0,"byteLength":7320},{"buffer":1,"byteOffset":7320,"byteLength":7320},{"buffer":1,"byteOffset":14640,"byteLength":4880},{"buffer":1,"byteOffset":19520,"byteLength":4880},{"buffer":1,"byteOffset":24400,"byteLength":4608}],"buffers":[{"byteLength":92256,"uri":"data:application/octet-stream;base64,"},{"byteLength":29008,"uri":"data:application/octet-stream;base64,"}]}
