{"asset":{"generator":"Khronos glTF Blender I/O v1.2.75","version":"2.0"},"scene":0,"scenes":[{"name":"Scene","nodes":[0]}],"nodes":[{"mesh":0,"name":"Mesh"}],"meshes":[{"name":"SK_3RDPP_Mannequin_FullBody_Mesh","primitives":[{"indices":5,"attributes":{"POSITION":0,"NORMAL":1,"TEXCOORD_0":2,"WEIGHTS_0":3,"JOINTS_0":4},"mode":4},{"indices":11,"attributes":{"POSITION":6,"NORMAL":7,"TEXCOORD_0":8,"WEIGHTS_0":9,"JOINTS_0":10},"mode":4}]}],"accessors":[{"bufferView":0,"componentType":5126,"count":23262,"type":"VEC3","min":[-0.6936327219009399,-0.0003651428269222379,-0.21971851587295532],"max":[0.6936327219009399,1.8253039121627808,0.015716509893536568]},{"bufferView":1,"componentType":5126,"count":23262,"type":"VEC3"},{"bufferView":2,"componentType":5126,"count":23262,"type":"VEC2"},{"bufferView":3,"componentType":5126,"count":23262,"type":"VEC4"},{"bufferView":4,"componentType":5126,"count":23262,"type":"VEC4"},{"bufferView":5,"componentType":5123,"count":123012,"type":"SCALAR"},{"bufferView":6,"componentType":5126,"count":35,"type":"VEC3","min":[-0.6936327219009399,-0.0003651428269222379,-0.21971851587295532],"max":[0.6936327219009399,1.8253039121627808,0.015716509893536568]},{"bufferView":7,"componentType":5126,"count":35,"type":"VEC3"},{"bufferView":8,"componentType":5126,"count":35,"type":"VEC2"},{"bufferView":9,"componentType":5126,"count":35,"type":"VEC4"},{"bufferView":10,"componentType":5126,"count":35,"type":"VEC4"},{"bufferView":11,"componentType":5123,"count":144,"type":"SCALAR"}],"bufferViews":[{"buffer":0,"byteOffset":0,"byteLength":279144},{"buffer":0,"byteOffset":279144,"byteLength":279144},{"buffer":0,"byteOffset":558288,"byteLength":186096},{"buffer":0,"byteOffset":744384,"byteLength":372192},{"buffer":0,"byteOffset":1116576,"byteLength":372192},{"buffer":0,"byteOffset":1488768,"byteLength":246024},{"buffer":1,"byteOffset":0,"byteLength":420},{"buffer":1,"byteOffset":420,"byteLength":420},{"buffer":1,"byteOffset":840,"byteLength":280},{"buffer":1,"byteOffset":1120,"byteLength":560},{"buffer":1,"byteOffset":1680,"byteLength":560},{"buffer":1,"byteOffset":2240,"byteLength":288}],"buffers":[{"byteLength":1734792,"uri":"data:application/octet-stream;base64,"},{"byteLength":2528,"uri":"data:application/octet-stream;base64,"}]}
